grf
version=1
nRows=18
nColumns=46
inDegrees=yes
endheader
time	ground_force_1_vx	ground_force_1_vy	ground_force_1_vz	ground_force_1_px	ground_force_1_py	ground_force_1_pz	ground_moment_1_mx	ground_moment_1_my	ground_moment_1_mz	ground_force_2_vx	ground_force_2_vy	ground_force_2_vz	ground_force_2_px	ground_force_2_py	ground_force_2_pz	ground_moment_2_mx	ground_moment_2_my	ground_moment_2_mz	ground_force_3_vx	ground_force_3_vy	ground_force_3_vz	ground_force_3_px	ground_force_3_py	ground_force_3_pz	ground_moment_3_mx	ground_moment_3_my	ground_moment_3_mz	ground_force_4_vx	ground_force_4_vy	ground_force_4_vz	ground_force_4_px	ground_force_4_py	ground_force_4_pz	ground_moment_4_mx	ground_moment_4_my	ground_moment_4_mz	ground_force_5_vx	ground_force_5_vy	ground_force_5_vz	ground_force_5_px	ground_force_5_py	ground_force_5_pz	ground_moment_5_mx	ground_moment_5_my	ground_moment_5_mz
0.807500	0.000000	0.000000	0.000000	0.000000	0.000000	0.000000	0.000000	0.000000	0.000000	0.000000	0.000000	0.000000	0.000000	0.000000	0.000000	0.000000	0.000000	0.000000	0.000000	0.000000	0.000000	0.000000	0.000000	0.000000	0.000000	0.000000	0.000000	0.040450	505.048138	-112.104894	0.156690	0.000000	-0.863829	0.000000	2.781915	0.000000	-13.840130	484.941358	112.760000	0.201234	0.000000	-1.588057	-0.000000	-2.909435	-0.000000
0.808000	0.000000	0.000000	0.000000	0.000000	0.000000	0.000000	0.000000	0.000000	0.000000	0.000000	0.000000	0.000000	0.000000	0.000000	0.000000	0.000000	0.000000	0.000000	0.000000	0.000000	0.000000	0.000000	0.000000	0.000000	0.000000	0.000000	0.000000	0.038692	505.881162	-112.310968	0.156671	0.000000	-0.863855	0.000000	2.784268	0.000000	-13.732901	485.253997	112.776446	0.201143	0.000000	-1.588018	-0.000000	-2.908646	-0.000000
0.808500	0.000000	0.000000	0.000000	0.000000	0.000000	0.000000	0.000000	0.000000	0.000000	0.000000	0.000000	0.000000	0.000000	0.000000	0.000000	0.000000	0.000000	0.000000	0.000000	0.000000	0.000000	0.000000	0.000000	0.000000	0.000000	0.000000	0.000000	0.040580	506.715553	-112.515040	0.156651	0.000000	-0.863881	0.000000	2.786793	0.000000	-13.625520	485.569633	112.790894	0.201051	0.000000	-1.587979	-0.000000	-2.908100	-0.000000
0.809000	0.000000	0.000000	0.000000	0.000000	0.000000	0.000000	0.000000	0.000000	0.000000	0.000000	0.000000	0.000000	0.000000	0.000000	0.000000	0.000000	0.000000	0.000000	0.000000	0.000000	0.000000	0.000000	0.000000	0.000000	0.000000	0.000000	0.000000	0.046095	507.550769	-112.716966	0.156631	0.000000	-0.863908	0.000000	2.789487	0.000000	-13.518129	485.888397	112.803417	0.200960	0.000000	-1.587939	-0.000000	-2.907803	-0.000000
0.809500	0.000000	0.000000	0.000000	0.000000	0.000000	0.000000	0.000000	0.000000	0.000000	0.000000	0.000000	0.000000	0.000000	0.000000	0.000000	0.000000	0.000000	0.000000	0.000000	0.000000	0.000000	0.000000	0.000000	0.000000	0.000000	0.000000	0.000000	0.055212	508.386277	-112.916617	0.156609	0.000000	-0.863935	0.000000	2.792345	0.000000	-13.410861	486.210418	112.814090	0.200869	0.000000	-1.587899	-0.000000	-2.907757	-0.000000
0.810000	0.000000	0.000000	0.000000	0.000000	0.000000	0.000000	0.000000	0.000000	0.000000	0.000000	0.000000	0.000000	0.000000	0.000000	0.000000	0.000000	0.000000	0.000000	0.000000	0.000000	0.000000	0.000000	0.000000	0.000000	0.000000	0.000000	0.000000	0.067903	509.221560	-113.113877	0.156586	0.000000	-0.863962	0.000000	2.795362	0.000000	-13.303848	486.535825	112.822992	0.200777	0.000000	-1.587859	-0.000000	-2.907964	-0.000000
0.810500	0.000000	0.000000	0.000000	0.000000	0.000000	0.000000	0.000000	0.000000	0.000000	0.000000	0.000000	0.000000	0.000000	0.000000	0.000000	0.000000	0.000000	0.000000	0.000000	0.000000	0.000000	0.000000	0.000000	0.000000	0.000000	0.000000	0.000000	0.084136	510.056115	-113.308640	0.156563	0.000000	-0.863990	-0.000000	2.798534	0.000000	-13.197216	486.864734	112.830202	0.200686	0.000000	-1.587819	-0.000000	-2.908423	-0.000000
0.811000	0.000000	0.000000	0.000000	0.000000	0.000000	0.000000	0.000000	0.000000	0.000000	0.000000	0.000000	0.000000	0.000000	0.000000	0.000000	0.000000	0.000000	0.000000	0.000000	0.000000	0.000000	0.000000	0.000000	0.000000	0.000000	0.000000	0.000000	0.103877	510.889459	-113.500807	0.156538	0.000000	-0.864018	-0.000000	2.801855	0.000000	-13.091087	487.197244	112.835796	0.200594	0.000000	-1.587778	-0.000000	-2.909133	-0.000000
0.811500	0.000000	0.000000	0.000000	0.000000	0.000000	0.000000	0.000000	0.000000	0.000000	0.000000	0.000000	0.000000	0.000000	0.000000	0.000000	0.000000	0.000000	0.000000	0.000000	0.000000	0.000000	0.000000	0.000000	0.000000	0.000000	0.000000	0.000000	0.127087	511.721121	-113.690278	0.156513	0.000000	-0.864047	-0.000000	2.805319	0.000000	-12.985576	487.533436	112.839846	0.200503	0.000000	-1.587737	-0.000000	-2.910091	-0.000000
0.812000	0.000000	0.000000	0.000000	0.000000	0.000000	0.000000	0.000000	0.000000	0.000000	0.000000	0.000000	0.000000	0.000000	0.000000	0.000000	0.000000	0.000000	0.000000	0.000000	0.000000	0.000000	0.000000	0.000000	0.000000	0.000000	0.000000	0.000000	0.153728	512.550639	-113.876955	0.156487	0.000000	-0.864077	-0.000000	2.808921	0.000000	-12.880792	487.873373	112.842424	0.200412	0.000000	-1.587695	-0.000000	-2.911293	-0.000000
0.812500	0.000000	0.000000	0.000000	0.000000	0.000000	0.000000	0.000000	0.000000	0.000000	0.000000	0.000000	0.000000	0.000000	0.000000	0.000000	0.000000	0.000000	0.000000	0.000000	0.000000	0.000000	0.000000	0.000000	0.000000	0.000000	0.000000	0.000000	0.183754	513.377557	-114.060748	0.156461	0.000000	-0.864106	-0.000000	2.812658	0.000000	-12.776837	488.217095	112.843603	0.200320	0.000000	-1.587654	-0.000000	-2.912733	-0.000000
0.813000	0.000000	0.000000	0.000000	0.000000	0.000000	0.000000	0.000000	0.000000	0.000000	0.000000	0.000000	0.000000	0.000000	0.000000	0.000000	0.000000	0.000000	0.000000	0.000000	0.000000	0.000000	0.000000	0.000000	0.000000	0.000000	0.000000	0.000000	0.217111	514.201427	-114.241573	0.156434	0.000000	-0.864137	-0.000000	2.816526	0.000000	-12.673805	488.564624	112.843456	0.200229	0.000000	-1.587612	-0.000000	-2.914405	-0.000000
0.813500	0.000000	0.000000	0.000000	0.000000	0.000000	0.000000	0.000000	0.000000	0.000000	0.000000	0.000000	0.000000	0.000000	0.000000	0.000000	0.000000	0.000000	0.000000	0.000000	0.000000	0.000000	0.000000	0.000000	0.000000	0.000000	0.000000	0.000000	0.253739	515.021813	-114.419347	0.156406	0.000000	-0.864167	-0.000000	2.820525	0.000000	-12.571779	488.915970	112.842053	0.200138	0.000000	-1.587570	-0.000000	-2.916305	-0.000000
0.814000	0.000000	0.000000	0.000000	0.000000	0.000000	0.000000	0.000000	0.000000	0.000000	0.000000	0.000000	0.000000	0.000000	0.000000	0.000000	0.000000	0.000000	0.000000	0.000000	0.000000	0.000000	0.000000	0.000000	0.000000	0.000000	0.000000	0.000000	0.293565	515.838296	-114.593991	0.156377	0.000000	-0.864198	-0.000000	2.824655	0.000000	-12.470839	489.271146	112.839459	0.200047	0.000000	-1.587527	-0.000000	-2.918430	-0.000000
0.814500	0.000000	0.000000	0.000000	0.000000	0.000000	0.000000	0.000000	0.000000	0.000000	0.000000	0.000000	0.000000	0.000000	0.000000	0.000000	0.000000	0.000000	0.000000	0.000000	0.000000	0.000000	0.000000	0.000000	0.000000	0.000000	0.000000	0.000000	0.336516	516.650474	-114.765424	0.156348	0.000000	-0.864230	-0.000000	2.828917	0.000000	-12.371054	489.630160	112.835734	0.199956	0.000000	-1.587485	-0.000000	-2.920777	-0.000000
0.815000	0.000000	0.000000	0.000000	0.000000	0.000000	0.000000	0.000000	0.000000	0.000000	0.000000	0.000000	0.000000	0.000000	0.000000	0.000000	0.000000	0.000000	0.000000	0.000000	0.000000	0.000000	0.000000	0.000000	0.000000	0.000000	0.000000	0.000000	0.382511	517.457969	-114.933569	0.156318	0.000000	-0.864262	-0.000000	2.833313	0.000000	-12.272484	489.993022	112.830924	0.199866	0.000000	-1.587442	-0.000000	-2.923345	-0.000000
0.815500	0.000000	0.000000	0.000000	0.000000	0.000000	0.000000	0.000000	0.000000	0.000000	0.000000	0.000000	0.000000	0.000000	0.000000	0.000000	0.000000	0.000000	0.000000	0.000000	0.000000	0.000000	0.000000	0.000000	0.000000	0.000000	0.000000	0.000000	0.431470	518.260427	-115.098362	0.156288	0.000000	-0.864294	-0.000000	2.837847	0.000000	-12.175182	490.359731	112.825071	0.199775	0.000000	-1.587398	-0.000000	-2.926130	-0.000000
0.816000	0.000000	0.000000	0.000000	0.000000	0.000000	0.000000	0.000000	0.000000	0.000000	0.000000	0.000000	0.000000	0.000000	0.000000	0.000000	0.000000	0.000000	0.000000	0.000000	0.000000	0.000000	0.000000	0.000000	0.000000	0.000000	0.000000	0.000000	0.483315	519.057514	-115.259743	0.156257	0.000000	-0.864327	-0.000000	2.842518	0.000000	-12.079200	490.730282	112.818210	0.199685	0.000000	-1.587355	-0.000000	-2.929133	-0.000000
